<svg width="10" height="8" viewBox="0 0 10 8" fill="none" xmlns="http://www.w3.org/2000/svg">
<path d="M9.566 0.519571C9.54333 0.525823 9.51129 0.537545 9.49488 0.546141C9.47769 0.554737 8.06326 1.49561 6.34952 2.63653C4.63657 3.77824 3.23073 4.71364 3.22448 4.71599C3.21901 4.71755 2.61338 4.26743 1.87804 3.71416C1.00749 3.0593 0.524554 2.70139 0.492514 2.68577C0.45266 2.66701 0.429217 2.66154 0.372952 2.65841C0.294025 2.65451 0.251826 2.6631 0.184621 2.69827C0.0298928 2.77876 -0.0412197 2.97256 0.0244226 3.13198C0.0345815 3.15698 0.627706 4.12599 1.34274 5.28645C2.05699 6.44691 2.7056 7.50031 2.78374 7.62691C2.87595 7.77773 2.93925 7.8715 2.96504 7.89807C3.07757 8.01216 3.25262 8.03248 3.39562 7.94887C3.41985 7.9348 3.90982 7.42373 4.92024 6.35704C5.73999 5.49275 6.5402 4.64878 6.69962 4.48155C7.18881 3.96579 9.78402 1.22679 9.88639 1.11817C10.0036 0.993915 10.031 0.847783 9.96454 0.705558C9.93875 0.650856 9.86373 0.573492 9.81137 0.547704C9.72932 0.50785 9.64492 0.498472 9.566 0.519571Z" fill="#C32A20"/>
</svg>
